<?xml version="1.0" encoding="UTF-8"?>
<svg width="1362px" height="755px" viewBox="0 0 1362 755" version="1.1" xmlns="http://www.w3.org/2000/svg" xmlns:xlink="http://www.w3.org/1999/xlink">
    <!-- Generator: Sketch 50.2 (55047) - http://www.bohemiancoding.com/sketch -->
    <title>stars</title>
    <desc>Created with Sketch.</desc>
    <defs></defs>
    <g id="Page-1" stroke="none" stroke-width="1" fill="none" fill-rule="evenodd">
        <g id="service_unavailable" transform="translate(-41.000000, -4.000000)">
            <g id="Page-1" transform="translate(41.000000, 3.000000)">
                <g id="stars" transform="translate(0.000000, 0.009000)">
                    <g id="100%" transform="translate(215.000000, 0.000000)">
                        <path d="M668.5937,115.72 C668.5937,117.994 666.7497,119.838 664.4767,119.838 C662.2017,119.838 660.3587,117.994 660.3587,115.72 C660.3587,113.447 662.2017,111.603 664.4767,111.603 C666.7497,111.603 668.5937,113.447 668.5937,115.72 Z" id="Stroke-1" stroke="#FFFFFF"></path>
                        <path d="M234.9473,485.4973 C234.9473,486.7483 233.9333,487.7613 232.6833,487.7613 C231.4333,487.7613 230.4203,486.7483 230.4203,485.4973 C230.4203,484.2473 231.4333,483.2333 232.6833,483.2333 C233.9333,483.2333 234.9473,484.2473 234.9473,485.4973" id="Fill-17" fill="#FFFFFF"></path>
                        <path d="M336.335,302.3127 C336.335,303.5627 335.321,304.5767 334.07,304.5767 C332.82,304.5767 331.807,303.5627 331.807,302.3127 C331.807,301.0627 332.82,300.0487 334.07,300.0487 C335.321,300.0487 336.335,301.0627 336.335,302.3127" id="Fill-19" fill="#FFFFFF"></path>
                        <path d="M24.2637,208.3469 C24.2637,209.5969 23.2497,210.6109 21.9997,210.6109 C20.7497,210.6109 19.7367,209.5969 19.7367,208.3469 C19.7367,207.0969 20.7497,206.0829 21.9997,206.0829 C23.2497,206.0829 24.2637,207.0969 24.2637,208.3469" id="Fill-21" fill="#FFFFFF"></path>
                        <path d="M34.2637,248.3469 C34.2637,249.5969 33.2497,250.6109 31.9997,250.6109 C30.7497,250.6109 29.7367,249.5969 29.7367,248.3469 C29.7367,247.0969 30.7497,246.0829 31.9997,246.0829 C33.2497,246.0829 34.2637,247.0969 34.2637,248.3469" id="Fill-23" fill="#FFFFFF"></path>
                        <path d="M415.9561,299.9612 C415.9561,301.2122 414.9421,302.2252 413.6921,302.2252 C412.4411,302.2252 411.4291,301.2122 411.4291,299.9612 C411.4291,298.7112 412.4411,297.6972 413.6921,297.6972 C414.9421,297.6972 415.9561,298.7112 415.9561,299.9612" id="Fill-25" fill="#FFFFFF"></path>
                        <path d="M927.2637,236.7249 C927.2637,237.9749 926.2497,238.9889 924.9997,238.9889 C923.7497,238.9889 922.7367,237.9749 922.7367,236.7249 C922.7367,235.4749 923.7497,234.4609 924.9997,234.4609 C926.2497,234.4609 927.2637,235.4749 927.2637,236.7249" id="Fill-27" fill="#FFFFFF"></path>
                        <path d="M237.2578,339.2493 C237.2578,340.6333 236.1368,341.7543 234.7538,341.7543 C233.3708,341.7543 232.2498,340.6333 232.2498,339.2493 C232.2498,337.8663 233.3708,336.7453 234.7538,336.7453 C236.1368,336.7453 237.2578,337.8663 237.2578,339.2493" id="Fill-37" fill="#FFFFFF"></path>
                        <path d="M4.5273,670.1555 C4.5273,671.4055 3.5133,672.4195 2.2633,672.4195 C1.0133,672.4195 0.0003,671.4055 0.0003,670.1555 C0.0003,668.9045 1.0133,667.8905 2.2633,667.8905 C3.5133,667.8905 4.5273,668.9045 4.5273,670.1555" id="Fill-55" fill="#FFFFFF"></path>
                        <path d="M116.1699,654.4338 C116.7899,655.0538 116.7899,656.0588 116.1699,656.6788 C115.5509,657.2978 114.5449,657.2978 113.9259,656.6788 C113.3059,656.0588 113.3059,655.0538 113.9259,654.4338 C114.5449,653.8138 115.5509,653.8138 116.1699,654.4338" id="Fill-57" fill="#FFFFFF"></path>
                        <path d="M897.0352,576.3499 C897.0352,577.5999 896.0212,578.6139 894.7712,578.6139 C893.5212,578.6139 892.5082,577.5999 892.5082,576.3499 C892.5082,575.0999 893.5212,574.0859 894.7712,574.0859 C896.0212,574.0859 897.0352,575.0999 897.0352,576.3499" id="Fill-67" fill="#FFFFFF"></path>
                        <path d="M932.1035,699.0315 C932.1035,700.2825 931.0895,701.2965 929.8385,701.2965 C928.5885,701.2965 927.5755,700.2825 927.5755,699.0315 C927.5755,697.7815 928.5885,696.7675 929.8385,696.7675 C931.0895,696.7675 932.1035,697.7815 932.1035,699.0315" id="Fill-69" fill="#FFFFFF"></path>
                        <path d="M718.082,404.0012 C717.559,404.6552 716.604,404.7622 715.95,404.2382 C715.297,403.7152 715.19,402.7602 715.714,402.1062 C716.237,401.4522 717.191,401.3462 717.846,401.8692 C718.5,402.3932 718.605,403.3482 718.082,404.0012" id="Fill-72" fill="#FFFFFF"></path>
                        <path d="M742.4033,407.6399 C741.8813,408.2939 740.9253,408.4009 740.2713,407.8769 C739.6183,407.3539 739.5113,406.3989 740.0353,405.7449 C740.5583,405.0909 741.5123,404.9849 742.1673,405.5079 C742.8213,406.0319 742.9263,406.9869 742.4033,407.6399" id="Fill-74" fill="#FFFFFF"></path>
                        <path d="M718.5469,418.3674 C717.6829,419.4474 716.1069,419.6224 715.0269,418.7584 C713.9469,417.8934 713.7729,416.3184 714.6369,415.2384 C715.4999,414.1584 717.0759,413.9834 718.1559,414.8474 C719.2349,415.7124 719.4109,417.2884 718.5469,418.3674" id="Fill-76" fill="#FFFFFF"></path>
                        <path d="M801.0371,633.3264 C801.0371,634.1644 800.3571,634.8434 799.5201,634.8434 C798.6831,634.8434 798.0041,634.1644 798.0041,633.3264 C798.0041,632.4884 798.6831,631.8094 799.5201,631.8094 C800.3571,631.8094 801.0371,632.4884 801.0371,633.3264" id="Fill-78" fill="#FFFFFF"></path>
                        <path d="M724.1924,709.4543 C724.1924,710.2923 723.5124,710.9723 722.6754,710.9723 C721.8384,710.9723 721.1594,710.2923 721.1594,709.4543 C721.1594,708.6173 721.8384,707.9373 722.6754,707.9373 C723.5124,707.9373 724.1924,708.6173 724.1924,709.4543" id="Fill-80" fill="#FFFFFF"></path>
                        <path d="M503.1094,732.7258 C503.7294,733.3448 503.7294,734.3498 503.1094,734.9698 C502.4894,735.5898 501.4844,735.5898 500.8644,734.9698 C500.2454,734.3498 500.2454,733.3448 500.8644,732.7258 C501.4844,732.1058 502.4894,732.1058 503.1094,732.7258" id="Fill-94" fill="#FFFFFF"></path>
                        <path d="M596.1621,128.7903 C596.1621,130.0413 595.1481,131.0553 593.8981,131.0553 C592.6471,131.0553 591.6351,130.0413 591.6351,128.7903 C591.6351,127.5403 592.6471,126.5263 593.8981,126.5263 C595.1481,126.5263 596.1621,127.5403 596.1621,128.7903" id="Fill-96" fill="#FFFFFF"></path>
                        <path d="M697.5488,95.6057 C697.5488,96.8567 696.5358,97.8707 695.2848,97.8707 C694.0348,97.8707 693.0218,96.8567 693.0218,95.6057 C693.0218,94.3557 694.0348,93.3417 695.2848,93.3417 C696.5358,93.3417 697.5488,94.3557 697.5488,95.6057" id="Fill-98" fill="#FFFFFF"></path>
                        <path d="M777.1709,3.2546 C777.1709,4.5046 776.1569,5.5186 774.9069,5.5186 C773.6559,5.5186 772.6429,4.5046 772.6429,3.2546 C772.6429,2.0046 773.6559,0.9906 774.9069,0.9906 C776.1569,0.9906 777.1709,2.0046 777.1709,3.2546" id="Fill-100" fill="#FFFFFF"></path>
                    </g>
                    <g id="60%" opacity="0.600000024" transform="translate(355.000000, 39.000000)">
                        <path d="M346.9229,70.6682 C346.9229,73.6052 344.5429,75.9842 341.6069,75.9842 C338.6699,75.9842 336.2889,73.6052 336.2889,70.6682 C336.2889,67.7312 338.6699,65.3512 341.6069,65.3512 C344.5429,65.3512 346.9229,67.7312 346.9229,70.6682 Z" id="Stroke-5" stroke="#FFFFFF"></path>
                        <path d="M298.3057,493.8499 C298.3057,495.0999 297.2917,496.1139 296.0417,496.1139 C294.7907,496.1139 293.7777,495.0999 293.7777,493.8499 C293.7777,492.5989 294.7907,491.5849 296.0417,491.5849 C297.2917,491.5849 298.3057,492.5989 298.3057,493.8499" id="Fill-29" fill="#FFFFFF"></path>
                        <path d="M345.625,581.7405 C345.625,582.9905 344.611,584.0045 343.361,584.0045 C342.11,584.0045 341.097,582.9905 341.097,581.7405 C341.097,580.4905 342.11,579.4765 343.361,579.4765 C344.611,579.4765 345.625,580.4905 345.625,581.7405" id="Fill-31" fill="#FFFFFF"></path>
                        <path d="M91.2295,288.634 C91.2295,289.472 90.5505,290.151 89.7125,290.151 C88.8755,290.151 88.1965,289.472 88.1965,288.634 C88.1965,287.797 88.8755,287.117 89.7125,287.117 C90.5505,287.117 91.2295,287.797 91.2295,288.634" id="Fill-33" fill="#FFFFFF"></path>
                        <path d="M98.7744,285.2971 C98.7744,286.1341 98.0954,286.8141 97.2574,286.8141 C96.4204,286.8141 95.7414,286.1341 95.7414,285.2971 C95.7414,284.4591 96.4204,283.7801 97.2574,283.7801 C98.0954,283.7801 98.7744,284.4591 98.7744,285.2971" id="Fill-35" fill="#FFFFFF"></path>
                        <path d="M541.4258,504.7893 C541.4258,506.0393 540.4118,507.0533 539.1618,507.0533 C537.9118,507.0533 536.8988,506.0393 536.8988,504.7893 C536.8988,503.5393 537.9118,502.5253 539.1618,502.5253 C540.4118,502.5253 541.4258,503.5393 541.4258,504.7893" id="Fill-59" fill="#FFFFFF"></path>
                        <path d="M637.1709,315.1575 C637.1709,316.4075 636.1569,317.4215 634.9069,317.4215 C633.6559,317.4215 632.6429,316.4075 632.6429,315.1575 C632.6429,313.9065 633.6559,312.8925 634.9069,312.8925 C636.1569,312.8925 637.1709,313.9065 637.1709,315.1575" id="Fill-61" fill="#FFFFFF"></path>
                        <path d="M722.4346,339.2532 C722.4346,340.5032 721.4206,341.5172 720.1706,341.5172 C718.9196,341.5172 717.9066,340.5032 717.9066,339.2532 C717.9066,338.0032 718.9196,336.9892 720.1706,336.9892 C721.4206,336.9892 722.4346,338.0032 722.4346,339.2532" id="Fill-63" fill="#FFFFFF"></path>
                        <path d="M777.9687,516.97 C777.9687,518.22 776.9557,519.234 775.7047,519.234 C774.4547,519.234 773.4417,518.22 773.4417,516.97 C773.4417,515.719 774.4547,514.705 775.7047,514.705 C776.9557,514.705 777.9687,515.719 777.9687,516.97" id="Fill-65" fill="#FFFFFF"></path>
                        <path d="M692.7051,54.9583 C692.7051,56.2083 691.6911,57.2223 690.4411,57.2223 C689.1911,57.2223 688.1781,56.2083 688.1781,54.9583 C688.1781,53.7083 689.1911,52.6943 690.4411,52.6943 C691.6911,52.6943 692.7051,53.7083 692.7051,54.9583" id="Fill-103" fill="#FFFFFF"></path>
                        <path d="M440.5508,1.6946 C440.5508,2.5326 439.8718,3.2116 439.0338,3.2116 C438.1968,3.2116 437.5178,2.5326 437.5178,1.6946 C437.5178,0.8566 438.1968,0.1776 439.0338,0.1776 C439.8718,0.1776 440.5508,0.8566 440.5508,1.6946" id="Fill-113" fill="#FFFFFF"></path>
                        <path d="M430.3994,13.4709 C430.9244,14.1229 430.8204,15.0779 430.1684,15.6029 C429.5144,16.1269 428.5594,16.0239 428.0354,15.3709 C427.5104,14.7179 427.6144,13.7629 428.2674,13.2389 C428.9204,12.7139 429.8754,12.8179 430.3994,13.4709" id="Fill-115" fill="#FFFFFF"></path>
                        <path d="M450.665,7.7678 C451.189,8.4208 451.086,9.3748 450.433,9.9008 C449.78,10.4248 448.825,10.3208 448.301,9.6678 C447.775,9.0148 447.88,8.0608 448.532,7.5358 C449.186,7.0108 450.141,7.1148 450.665,7.7678" id="Fill-117" fill="#FFFFFF"></path>
                        <path d="M435.2158,36.2112 C435.2158,37.5942 434.0948,38.7152 432.7118,38.7152 C431.3288,38.7152 430.2078,37.5942 430.2078,36.2112 C430.2078,34.8282 431.3288,33.7072 432.7118,33.7072 C434.0948,33.7072 435.2158,34.8282 435.2158,36.2112" id="Fill-119" fill="#FFFFFF"></path>
                        <path d="M467.8906,242.7698 C467.8906,243.6078 467.2116,244.2868 466.3736,244.2868 C465.5366,244.2868 464.8576,243.6078 464.8576,242.7698 C464.8576,241.9318 465.5366,241.2528 466.3736,241.2528 C467.2116,241.2528 467.8906,241.9318 467.8906,242.7698" id="Fill-121" fill="#FFFFFF"></path>
                        <path d="M106.6758,579.4768 C106.6758,580.3138 105.9968,580.9938 105.1588,580.9938 C104.3218,580.9938 103.6428,580.3138 103.6428,579.4768 C103.6428,578.6388 104.3218,577.9598 105.1588,577.9598 C105.9968,577.9598 106.6758,578.6388 106.6758,579.4768" id="Fill-39" fill="#FFFFFF"></path>
                        <path d="M5.2998,641.1262 C5.2998,642.3762 4.2868,643.3902 3.0358,643.3902 C1.7858,643.3902 0.7728,642.3762 0.7728,641.1262 C0.7728,639.8752 1.7858,638.8612 3.0358,638.8612 C4.2868,638.8612 5.2998,639.8752 5.2998,641.1262" id="Fill-53" fill="#FFFFFF"></path>
                        <path d="M776.6504,613.2551 C776.6504,615.5281 774.8064,617.3721 772.5324,617.3721 C770.2584,617.3721 768.4154,615.5281 768.4154,613.2551 C768.4154,610.9811 770.2584,609.1371 772.5324,609.1371 C774.8064,609.1371 776.6504,610.9811 776.6504,613.2551 Z" id="Stroke-3" stroke="#FFFFFF"></path>
                    </g>
                    <g id="60%" opacity="0.600000024" transform="translate(1284.000000, 308.000000) rotate(180.000000) translate(-1284.000000, -308.000000) translate(1211.000000, 25.000000)">
                        <path d="M5.1709,263.1575 C5.1709,264.4075 4.1569,265.4215 2.9069,265.4215 C1.6559,265.4215 0.6429,264.4075 0.6429,263.1575 C0.6429,261.9065 1.6559,260.8925 2.9069,260.8925 C4.1569,260.8925 5.1709,261.9065 5.1709,263.1575" id="Fill-61" fill="#FFFFFF"></path>
                        <path d="M90.4346,287.2532 C90.4346,288.5032 89.4206,289.5172 88.1706,289.5172 C86.9196,289.5172 85.9066,288.5032 85.9066,287.2532 C85.9066,286.0032 86.9196,284.9892 88.1706,284.9892 C89.4206,284.9892 90.4346,286.0032 90.4346,287.2532" id="Fill-63" fill="#FFFFFF"></path>
                        <path d="M145.9687,464.97 C145.9687,466.22 144.9557,467.234 143.7047,467.234 C142.4547,467.234 141.4417,466.22 141.4417,464.97 C141.4417,463.719 142.4547,462.705 143.7047,462.705 C144.9557,462.705 145.9687,463.719 145.9687,464.97" id="Fill-65" fill="#FFFFFF"></path>
                        <path d="M60.7051,2.9583 C60.7051,4.2083 59.6911,5.2223 58.4411,5.2223 C57.1911,5.2223 56.1781,4.2083 56.1781,2.9583 C56.1781,1.7083 57.1911,0.6943 58.4411,0.6943 C59.6911,0.6943 60.7051,1.7083 60.7051,2.9583" id="Fill-103" fill="#FFFFFF"></path>
                        <path d="M144.6504,561.2551 C144.6504,563.5281 142.8064,565.3721 140.5324,565.3721 C138.2584,565.3721 136.4154,563.5281 136.4154,561.2551 C136.4154,558.9811 138.2584,557.1371 140.5324,557.1371 C142.8064,557.1371 144.6504,558.9811 144.6504,561.2551 Z" id="Stroke-3" stroke="#FFFFFF"></path>
                    </g>
                    <g id="20%" opacity="0.200000018" transform="translate(1172.000000, 94.000000)">
                        <path d="M12.8848,5.8381 C12.8848,8.7751 10.5038,11.1541 7.5678,11.1541 C4.6308,11.1541 2.2508,8.7751 2.2508,5.8381 C2.2508,2.9011 4.6308,0.5211 7.5678,0.5211 C10.5038,0.5211 12.8848,2.9011 12.8848,5.8381 Z" id="Stroke-7" stroke="#FFFFFF"></path>
                        <path d="M183.7432,268.4202 C183.7432,271.0842 181.5842,273.2442 178.9192,273.2442 C176.2552,273.2442 174.0952,271.0842 174.0952,268.4202 C174.0952,265.7562 176.2552,263.5962 178.9192,263.5962 C181.5842,263.5962 183.7432,265.7562 183.7432,268.4202 Z" id="Stroke-9" stroke="#FFFFFF"></path>
                        <path d="M172.418,461.6028 C172.418,462.4408 171.738,463.1198 170.901,463.1198 C170.064,463.1198 169.384,462.4408 169.384,461.6028 C169.384,460.7648 170.064,460.0858 170.901,460.0858 C171.738,460.0858 172.418,460.7648 172.418,461.6028" id="Fill-41" fill="#FFFFFF"></path>
                        <path d="M189.1875,516.4006 C189.1875,517.7836 188.0665,518.9046 186.6835,518.9046 C185.3005,518.9046 184.1795,517.7836 184.1795,516.4006 C184.1795,515.0176 185.3005,513.8966 186.6835,513.8966 C188.0665,513.8966 189.1875,515.0176 189.1875,516.4006" id="Fill-43" fill="#FFFFFF"></path>
                        <path d="M28.6885,136.012 C28.6885,137.079 27.8235,137.945 26.7555,137.945 C25.6895,137.945 24.8245,137.079 24.8245,136.012 C24.8245,134.945 25.6895,134.079 26.7555,134.079 C27.8235,134.079 28.6885,134.945 28.6885,136.012" id="Fill-45" fill="#FFFFFF"></path>
                        <path d="M33.6445,356.4973 C33.6445,357.7473 32.6305,358.7613 31.3805,358.7613 C30.1305,358.7613 29.1175,357.7473 29.1175,356.4973 C29.1175,355.2473 30.1305,354.2333 31.3805,354.2333 C32.6305,354.2333 33.6445,355.2473 33.6445,356.4973" id="Fill-47" fill="#FFFFFF"></path>
                        <path d="M20.7773,363.0178 C21.3973,363.6378 21.3973,364.6428 20.7773,365.2628 C20.1583,365.8818 19.1533,365.8818 18.5333,365.2628 C17.9133,364.6428 17.9133,363.6378 18.5333,363.0178 C19.1533,362.3978 20.1583,362.3978 20.7773,363.0178" id="Fill-49" fill="#FFFFFF"></path>
                        <path d="M3.373,108.5168 C3.993,109.1358 3.993,110.1408 3.373,110.7608 C2.753,111.3808 1.748,111.3808 1.128,110.7608 C0.509,110.1408 0.509,109.1358 1.128,108.5168 C1.748,107.8968 2.753,107.8968 3.373,108.5168" id="Fill-51" fill="#FFFFFF"></path>
                    </g>
                    <g id="60%" opacity="0.600000024" transform="translate(47.000000, 161.000000)">
                        <path d="M5.1709,263.1575 C5.1709,264.4075 4.1569,265.4215 2.9069,265.4215 C1.6559,265.4215 0.6429,264.4075 0.6429,263.1575 C0.6429,261.9065 1.6559,260.8925 2.9069,260.8925 C4.1569,260.8925 5.1709,261.9065 5.1709,263.1575" id="Fill-61" fill="#FFFFFF"></path>
                        <path d="M90.4346,287.2532 C90.4346,288.5032 89.4206,289.5172 88.1706,289.5172 C86.9196,289.5172 85.9066,288.5032 85.9066,287.2532 C85.9066,286.0032 86.9196,284.9892 88.1706,284.9892 C89.4206,284.9892 90.4346,286.0032 90.4346,287.2532" id="Fill-63" fill="#FFFFFF"></path>
                        <path d="M145.9687,464.97 C145.9687,466.22 144.9557,467.234 143.7047,467.234 C142.4547,467.234 141.4417,466.22 141.4417,464.97 C141.4417,463.719 142.4547,462.705 143.7047,462.705 C144.9557,462.705 145.9687,463.719 145.9687,464.97" id="Fill-65" fill="#FFFFFF"></path>
                        <path d="M60.7051,2.9583 C60.7051,4.2083 59.6911,5.2223 58.4411,5.2223 C57.1911,5.2223 56.1781,4.2083 56.1781,2.9583 C56.1781,1.7083 57.1911,0.6943 58.4411,0.6943 C59.6911,0.6943 60.7051,1.7083 60.7051,2.9583" id="Fill-103" fill="#FFFFFF"></path>
                        <path d="M144.6504,561.2551 C144.6504,563.5281 142.8064,565.3721 140.5324,565.3721 C138.2584,565.3721 136.4154,563.5281 136.4154,561.2551 C136.4154,558.9811 138.2584,557.1371 140.5324,557.1371 C142.8064,557.1371 144.6504,558.9811 144.6504,561.2551 Z" id="Stroke-3" stroke="#FFFFFF"></path>
                    </g>
                    <g id="20%" opacity="0.200000018" transform="translate(0.000000, 70.000000)" fill="#FFFFFF">
                        <path d="M372.3076,574.8987 C372.3076,576.2817 371.1866,577.4027 369.8026,577.4027 C368.4196,577.4027 367.2986,576.2817 367.2986,574.8987 C367.2986,573.5157 368.4196,572.3947 369.8026,572.3947 C371.1866,572.3947 372.3076,573.5157 372.3076,574.8987" id="Fill-82"></path>
                        <path d="M174.7803,556.2102 C174.7803,557.2772 173.9153,558.1422 172.8483,558.1422 C171.7813,558.1422 170.9163,557.2772 170.9163,556.2102 C170.9163,555.1432 171.7813,554.2772 172.8483,554.2772 C173.9153,554.2772 174.7803,555.1432 174.7803,556.2102" id="Fill-84"></path>
                        <path d="M101.123,528.7893 C101.123,530.0393 100.109,531.0533 98.859,531.0533 C97.609,531.0533 96.596,530.0393 96.596,528.7893 C96.596,527.5383 97.609,526.5243 98.859,526.5243 C100.109,526.5243 101.123,527.5383 101.123,528.7893" id="Fill-86"></path>
                        <path d="M88.2559,535.3098 C88.8759,535.9288 88.8759,536.9348 88.2559,537.5538 C87.6369,538.1738 86.6309,538.1738 86.0119,537.5538 C85.3919,536.9348 85.3919,535.9288 86.0119,535.3098 C86.6309,534.6898 87.6369,534.6898 88.2559,535.3098" id="Fill-88"></path>
                        <path d="M374.5205,116.1428 C374.5205,117.3928 373.5065,118.4068 372.2555,118.4068 C371.0055,118.4068 369.9925,117.3928 369.9925,116.1428 C369.9925,114.8918 371.0055,113.8788 372.2555,113.8788 C373.5065,113.8788 374.5205,114.8918 374.5205,116.1428" id="Fill-105"></path>
                        <path d="M421.8398,254.0334 C421.8398,255.2834 420.8258,256.2974 419.5748,256.2974 C418.3248,256.2974 417.3118,255.2834 417.3118,254.0334 C417.3118,252.7834 418.3248,251.7694 419.5748,251.7694 C420.8258,251.7694 421.8398,252.7834 421.8398,254.0334" id="Fill-107"></path>
                        <path d="M447.2119,228.9006 C447.2119,230.1516 446.1979,231.1656 444.9479,231.1656 C443.6979,231.1656 442.6849,230.1516 442.6849,228.9006 C442.6849,227.6506 443.6979,226.6366 444.9479,226.6366 C446.1979,226.6366 447.2119,227.6506 447.2119,228.9006" id="Fill-109"></path>
                        <path d="M136.1826,2.4446 C136.1826,3.2816 135.5036,3.9616 134.6656,3.9616 C133.8286,3.9616 133.1496,3.2816 133.1496,2.4446 C133.1496,1.6066 133.8286,0.9276 134.6656,0.9276 C135.5036,0.9276 136.1826,1.6066 136.1826,2.4446" id="Fill-111"></path>
                        <path d="M154.6318,208.8958 C154.6318,209.7338 153.9528,210.4128 153.1148,210.4128 C152.2778,210.4128 151.5988,209.7338 151.5988,208.8958 C151.5988,208.0578 152.2778,207.3788 153.1148,207.3788 C153.9528,207.3788 154.6318,208.0578 154.6318,208.8958" id="Fill-123"></path>
                        <path d="M171.4023,263.6936 C171.4023,265.0776 170.2813,266.1986 168.8983,266.1986 C167.5153,266.1986 166.3943,265.0776 166.3943,263.6936 C166.3943,262.3106 167.5153,261.1896 168.8983,261.1896 C170.2813,261.1896 171.4023,262.3106 171.4023,263.6936" id="Fill-125"></path>
                        <path d="M89.5166,141.2112 C89.5166,142.2782 88.6516,143.1442 87.5836,143.1442 C86.5176,143.1442 85.6526,142.2782 85.6526,141.2112 C85.6526,140.1452 86.5176,139.2792 87.5836,139.2792 C88.6516,139.2792 89.5166,140.1452 89.5166,141.2112" id="Fill-127"></path>
                        <path d="M15.8594,83.7903 C15.8594,85.0403 14.8454,86.0543 13.5954,86.0543 C12.3444,86.0543 11.3324,85.0403 11.3324,83.7903 C11.3324,82.5403 12.3444,81.5263 13.5954,81.5263 C14.8454,81.5263 15.8594,82.5403 15.8594,83.7903" id="Fill-129"></path>
                        <path d="M2.9922,90.3108 C3.6122,90.9308 3.6122,91.9358 2.9922,92.5558 C2.3722,93.1758 1.3672,93.1758 0.7482,92.5558 C0.1282,91.9358 0.1282,90.9308 0.7482,90.3108 C1.3672,89.6908 2.3722,89.6908 2.9922,90.3108" id="Fill-131"></path>
                        <path d="M81.5146,173.4192 C81.5146,174.6692 80.5006,175.6832 79.2506,175.6832 C78.0006,175.6832 76.9876,174.6692 76.9876,173.4192 C76.9876,172.1682 78.0006,171.1552 79.2506,171.1552 C80.5006,171.1552 81.5146,172.1682 81.5146,173.4192" id="Fill-133"></path>
                        <path d="M52.3848,287.7268 C53.0048,288.3468 53.0048,289.3518 52.3848,289.9718 C51.7648,290.5918 50.7598,290.5918 50.1398,289.9718 C49.5208,289.3518 49.5208,288.3468 50.1398,287.7268 C50.7598,287.1068 51.7648,287.1068 52.3848,287.7268" id="Fill-135"></path>
                    </g>
                    <g id="20%" opacity="0.200000018" transform="translate(261.000000, 30.000000)">
                        <path d="M12.8848,89.8381 C12.8848,92.7751 10.5038,95.1541 7.5678,95.1541 C4.6308,95.1541 2.2508,92.7751 2.2508,89.8381 C2.2508,86.9011 4.6308,84.5211 7.5678,84.5211 C10.5038,84.5211 12.8848,86.9011 12.8848,89.8381 Z" id="Stroke-7" stroke="#FFFFFF"></path>
                        <path d="M183.7432,352.4202 C183.7432,355.0842 181.5842,357.2442 178.9192,357.2442 C176.2552,357.2442 174.0952,355.0842 174.0952,352.4202 C174.0952,349.7562 176.2552,347.5962 178.9192,347.5962 C181.5842,347.5962 183.7432,349.7562 183.7432,352.4202 Z" id="Stroke-9" stroke="#FFFFFF"></path>
                        <path d="M357.3398,662.5178 C357.3398,665.1828 355.1808,667.3418 352.5158,667.3418 C349.8518,667.3418 347.6918,665.1828 347.6918,662.5178 C347.6918,659.8538 349.8518,657.6948 352.5158,657.6948 C355.1808,657.6948 357.3398,659.8538 357.3398,662.5178 Z" id="Stroke-11" stroke="#FFFFFF"></path>
                        <path d="M674.6553,721.6077 C674.6553,723.4457 673.1653,724.9357 671.3273,724.9357 C669.4893,724.9357 668.0003,723.4457 668.0003,721.6077 C668.0003,719.7697 669.4893,718.2807 671.3273,718.2807 C673.1653,718.2807 674.6553,719.7697 674.6553,721.6077 Z" id="Stroke-15" stroke="#FFFFFF"></path>
                        <path d="M172.418,545.6028 C172.418,546.4408 171.738,547.1198 170.901,547.1198 C170.064,547.1198 169.384,546.4408 169.384,545.6028 C169.384,544.7648 170.064,544.0858 170.901,544.0858 C171.738,544.0858 172.418,544.7648 172.418,545.6028" id="Fill-41" fill="#FFFFFF"></path>
                        <path d="M189.1875,600.4006 C189.1875,601.7836 188.0665,602.9046 186.6835,602.9046 C185.3005,602.9046 184.1795,601.7836 184.1795,600.4006 C184.1795,599.0176 185.3005,597.8966 186.6835,597.8966 C188.0665,597.8966 189.1875,599.0176 189.1875,600.4006" id="Fill-43" fill="#FFFFFF"></path>
                        <path d="M28.6885,220.012 C28.6885,221.079 27.8235,221.945 26.7555,221.945 C25.6895,221.945 24.8245,221.079 24.8245,220.012 C24.8245,218.945 25.6895,218.079 26.7555,218.079 C27.8235,218.079 28.6885,218.945 28.6885,220.012" id="Fill-45" fill="#FFFFFF"></path>
                        <path d="M33.6445,440.4973 C33.6445,441.7473 32.6305,442.7613 31.3805,442.7613 C30.1305,442.7613 29.1175,441.7473 29.1175,440.4973 C29.1175,439.2473 30.1305,438.2333 31.3805,438.2333 C32.6305,438.2333 33.6445,439.2473 33.6445,440.4973" id="Fill-47" fill="#FFFFFF"></path>
                        <path d="M20.7773,447.0178 C21.3973,447.6378 21.3973,448.6428 20.7773,449.2628 C20.1583,449.8818 19.1533,449.8818 18.5333,449.2628 C17.9133,448.6428 17.9133,447.6378 18.5333,447.0178 C19.1533,446.3978 20.1583,446.3978 20.7773,447.0178" id="Fill-49" fill="#FFFFFF"></path>
                        <path d="M3.373,192.5168 C3.993,193.1358 3.993,194.1408 3.373,194.7608 C2.753,195.3808 1.748,195.3808 1.128,194.7608 C0.509,194.1408 0.509,193.1358 1.128,192.5168 C1.748,191.8968 2.753,191.8968 3.373,192.5168" id="Fill-51" fill="#FFFFFF"></path>
                        <path d="M751.3076,574.8987 C751.3076,576.2817 750.1866,577.4027 748.8026,577.4027 C747.4196,577.4027 746.2986,576.2817 746.2986,574.8987 C746.2986,573.5157 747.4196,572.3947 748.8026,572.3947 C750.1866,572.3947 751.3076,573.5157 751.3076,574.8987" id="Fill-82" fill="#FFFFFF"></path>
                        <path d="M553.7803,556.2102 C553.7803,557.2772 552.9153,558.1422 551.8483,558.1422 C550.7813,558.1422 549.9163,557.2772 549.9163,556.2102 C549.9163,555.1432 550.7813,554.2772 551.8483,554.2772 C552.9153,554.2772 553.7803,555.1432 553.7803,556.2102" id="Fill-84" fill="#FFFFFF"></path>
                        <path d="M480.123,528.7893 C480.123,530.0393 479.109,531.0533 477.859,531.0533 C476.609,531.0533 475.596,530.0393 475.596,528.7893 C475.596,527.5383 476.609,526.5243 477.859,526.5243 C479.109,526.5243 480.123,527.5383 480.123,528.7893" id="Fill-86" fill="#FFFFFF"></path>
                        <path d="M467.2559,535.3098 C467.8759,535.9288 467.8759,536.9348 467.2559,537.5538 C466.6369,538.1738 465.6309,538.1738 465.0119,537.5538 C464.3919,536.9348 464.3919,535.9288 465.0119,535.3098 C465.6309,534.6898 466.6369,534.6898 467.2559,535.3098" id="Fill-88" fill="#FFFFFF"></path>
                        <path d="M753.5205,116.1428 C753.5205,117.3928 752.5065,118.4068 751.2555,118.4068 C750.0055,118.4068 748.9925,117.3928 748.9925,116.1428 C748.9925,114.8918 750.0055,113.8788 751.2555,113.8788 C752.5065,113.8788 753.5205,114.8918 753.5205,116.1428" id="Fill-105" fill="#FFFFFF"></path>
                        <path d="M800.8398,254.0334 C800.8398,255.2834 799.8258,256.2974 798.5748,256.2974 C797.3248,256.2974 796.3118,255.2834 796.3118,254.0334 C796.3118,252.7834 797.3248,251.7694 798.5748,251.7694 C799.8258,251.7694 800.8398,252.7834 800.8398,254.0334" id="Fill-107" fill="#FFFFFF"></path>
                        <path d="M826.2119,228.9006 C826.2119,230.1516 825.1979,231.1656 823.9479,231.1656 C822.6979,231.1656 821.6849,230.1516 821.6849,228.9006 C821.6849,227.6506 822.6979,226.6366 823.9479,226.6366 C825.1979,226.6366 826.2119,227.6506 826.2119,228.9006" id="Fill-109" fill="#FFFFFF"></path>
                        <path d="M515.1826,2.4446 C515.1826,3.2816 514.5036,3.9616 513.6656,3.9616 C512.8286,3.9616 512.1496,3.2816 512.1496,2.4446 C512.1496,1.6066 512.8286,0.9276 513.6656,0.9276 C514.5036,0.9276 515.1826,1.6066 515.1826,2.4446" id="Fill-111" fill="#FFFFFF"></path>
                        <path d="M533.6318,208.8958 C533.6318,209.7338 532.9528,210.4128 532.1148,210.4128 C531.2778,210.4128 530.5988,209.7338 530.5988,208.8958 C530.5988,208.0578 531.2778,207.3788 532.1148,207.3788 C532.9528,207.3788 533.6318,208.0578 533.6318,208.8958" id="Fill-123" fill="#FFFFFF"></path>
                        <path d="M550.4023,263.6936 C550.4023,265.0776 549.2813,266.1986 547.8983,266.1986 C546.5153,266.1986 545.3943,265.0776 545.3943,263.6936 C545.3943,262.3106 546.5153,261.1896 547.8983,261.1896 C549.2813,261.1896 550.4023,262.3106 550.4023,263.6936" id="Fill-125" fill="#FFFFFF"></path>
                        <path d="M468.5166,141.2112 C468.5166,142.2782 467.6516,143.1442 466.5836,143.1442 C465.5176,143.1442 464.6526,142.2782 464.6526,141.2112 C464.6526,140.1452 465.5176,139.2792 466.5836,139.2792 C467.6516,139.2792 468.5166,140.1452 468.5166,141.2112" id="Fill-127" fill="#FFFFFF"></path>
                        <path d="M394.8594,83.7903 C394.8594,85.0403 393.8454,86.0543 392.5954,86.0543 C391.3444,86.0543 390.3324,85.0403 390.3324,83.7903 C390.3324,82.5403 391.3444,81.5263 392.5954,81.5263 C393.8454,81.5263 394.8594,82.5403 394.8594,83.7903" id="Fill-129" fill="#FFFFFF"></path>
                        <path d="M381.9922,90.3108 C382.6122,90.9308 382.6122,91.9358 381.9922,92.5558 C381.3722,93.1758 380.3672,93.1758 379.7482,92.5558 C379.1282,91.9358 379.1282,90.9308 379.7482,90.3108 C380.3672,89.6908 381.3722,89.6908 381.9922,90.3108" id="Fill-131" fill="#FFFFFF"></path>
                        <path d="M460.5146,173.4192 C460.5146,174.6692 459.5006,175.6832 458.2506,175.6832 C457.0006,175.6832 455.9876,174.6692 455.9876,173.4192 C455.9876,172.1682 457.0006,171.1552 458.2506,171.1552 C459.5006,171.1552 460.5146,172.1682 460.5146,173.4192" id="Fill-133" fill="#FFFFFF"></path>
                    </g>
                </g>
            </g>
        </g>
    </g>
</svg>