<?xml version="1.0" encoding="UTF-8"?>
<svg width="870px" height="687px" viewBox="0 0 870 687" version="1.1" xmlns="http://www.w3.org/2000/svg" xmlns:xlink="http://www.w3.org/1999/xlink">
    <!-- Generator: Sketch 50.2 (55047) - http://www.bohemiancoding.com/sketch -->
    <title>+++</title>
    <desc>Created with Sketch.</desc>
    <defs></defs>
    <g id="Page-1" stroke="none" stroke-width="1" fill="none" fill-rule="evenodd" stroke-linecap="round">
        <g id="service_unavailable" transform="translate(-257.000000, -69.000000)" stroke="#DADADA">
            <g id="Page-1" transform="translate(41.000000, 3.000000)">
                <g id="+++" transform="translate(217.000000, 67.009000)">
                    <g id="Group-142" transform="translate(335.000000, 0.000000)" stroke-width="2.602">
                        <path d="M7.2217,0.4856 L7.2217,15.9366" id="Stroke-138"></path>
                        <path d="M13.6602,8.2112 L0.7842,8.2112" id="Stroke-140"></path>
                    </g>
                    <g id="Group-147" opacity="0.599999964" transform="translate(640.000000, 99.000000)" stroke-width="2.602">
                        <path d="M7.2236,0.8655 L7.2236,16.3155" id="Stroke-143"></path>
                        <path d="M13.6621,8.5901 L0.7861,8.5901" id="Stroke-145"></path>
                    </g>
                    <g id="Group-152" transform="translate(0.000000, 431.000000)" stroke-width="2">
                        <path d="M4.9482,0.0198 L4.9482,11.8958" id="Stroke-148"></path>
                        <path d="M9.8965,5.9573 L0.0005,5.9573" id="Stroke-150"></path>
                    </g>
                    <g id="Group-157" transform="translate(145.000000, 235.000000)" stroke-width="2">
                        <path d="M5,0.7961 L5,12.6721" id="Stroke-153"></path>
                        <path d="M9.9482,6.7346 L0.0522,6.7346" id="Stroke-155"></path>
                    </g>
                    <g id="Group-162" opacity="0.599999964" transform="translate(150.000000, 440.000000)" stroke-width="2.602">
                        <path d="M6.4375,0.595 L6.4375,16.045" id="Stroke-158"></path>
                        <path d="M12.876,8.3206 L0,8.3206" id="Stroke-160"></path>
                    </g>
                    <g id="Group-167" transform="translate(15.000000, 5.000000)" stroke-width="2">
                        <path d="M5,0.5276 L5,12.4026" id="Stroke-163"></path>
                        <path d="M9.9482,6.4651 L0.0522,6.4651" id="Stroke-165"></path>
                    </g>
                    <g id="Group-172" transform="translate(858.000000, 281.000000)" stroke-width="2">
                        <path d="M5,0.3752 L5,12.2512" id="Stroke-168"></path>
                        <path d="M9.9482,6.3127 L0.0522,6.3127" id="Stroke-170"></path>
                    </g>
                    <g id="Group-177" opacity="0.599999964" transform="translate(120.000000, 511.000000)" stroke-width="2">
                        <path d="M4.9482,0.0198 L4.9482,11.8958" id="Stroke-173"></path>
                        <path d="M9.8965,5.9573 L0.0005,5.9573" id="Stroke-175"></path>
                    </g>
                    <g id="Group-182" transform="translate(200.000000, 669.000000)" stroke-width="2.602">
                        <path d="M6.4668,0.1575 L6.4668,15.6075" id="Stroke-178"></path>
                        <path d="M12.9043,7.8831 L0.0283,7.8831" id="Stroke-180"></path>
                    </g>
                    <g id="Group-187" transform="translate(748.000000, 570.000000)" stroke-width="3.173">
                        <path d="M7.8496,0.4827 L7.8496,19.3217" id="Stroke-183"></path>
                        <path d="M15.6992,9.9026 L0.0002,9.9026" id="Stroke-185"></path>
                    </g>
                    <g id="Group-192" opacity="0.599999964" transform="translate(652.000000, 529.000000)" stroke-width="2">
                        <path d="M5.5283,0.6721 L5.5283,12.5481" id="Stroke-188"></path>
                        <path d="M10.4766,6.6106 L0.5806,6.6106" id="Stroke-190"></path>
                    </g>
                </g>
            </g>
        </g>
    </g>
</svg>